<svg width="107" height="30" viewBox="0 0 107 30" fill="none" xmlns="http://www.w3.org/2000/svg">
<g clip-path="url(#clip0_231_1205)">
<g filter="url(#filter0_d_231_1205)">
<path d="M16.3295 0C16.3712 0.0188833 16.4152 0.0322504 16.4603 0.0397709C17.9401 0.0963912 19.4046 0.363649 20.8107 0.833669C22.3706 1.34957 23.8408 2.11011 25.1675 3.0875C27.0065 4.43001 28.5285 6.16843 29.6239 8.17761C30.2686 9.372 30.7593 10.6451 31.084 11.9659C31.2625 12.6671 31.4004 13.3783 31.4969 14.0959C31.5657 14.598 31.6077 15.1035 31.6227 15.6102C31.6257 15.7305 31.6396 15.8508 31.6406 15.9711C31.6539 16.945 31.5757 17.918 31.4068 18.8769C31.1794 20.1364 30.7918 21.3608 30.2537 22.5196C29.6332 23.8445 28.8527 25.0864 27.93 26.2168C27.5966 26.6379 27.2417 27.0412 26.8669 27.425C26.4147 27.878 25.9327 28.2994 25.4242 28.6866C24.864 29.1112 24.2807 29.5038 23.6771 29.8626C23.6115 29.9018 23.5279 29.9225 23.4916 30.0025H23.3488C23.3197 29.9651 23.2885 29.9295 23.2553 29.8958C21.9783 28.757 20.7396 27.575 19.4322 26.4725C18.8958 26.0282 18.3871 25.5507 17.9089 25.0428C16.8176 23.8695 15.8705 22.5669 15.0883 21.1634C14.6634 20.3977 14.2923 19.6068 14.0252 18.7681C13.771 17.9626 13.6501 17.1421 13.7471 16.2943C13.8551 15.3479 14.2645 14.5827 15.0346 14.0218C15.347 13.7992 15.6856 13.6166 16.0424 13.4782C16.741 13.2055 17.4759 13.0404 18.2229 12.9883C18.3651 12.9772 18.5084 12.9667 18.6497 12.9465C18.791 12.9264 18.8407 12.8504 18.7905 12.7094C18.7237 12.5371 18.6274 12.3781 18.5059 12.2397C18.2794 11.9686 18.0181 11.7293 17.7289 11.5284C17.4543 11.3361 17.1732 11.1538 16.8916 10.9716C16.668 10.8322 16.4588 10.6703 16.2673 10.4883C16.0068 10.2278 15.7855 9.92998 15.6106 9.60431C15.2856 9.01196 14.8653 8.47857 14.367 8.02608C13.3488 7.08146 12.0398 6.52119 10.6608 6.43979C10.0365 6.397 9.4221 6.47654 8.81618 6.62253C7.8869 6.84605 7.04369 7.25282 6.33927 7.91079C5.09808 9.06867 4.36481 10.4949 4.20711 12.208C4.14493 12.8811 4.13299 13.5572 4.12354 14.2323C4.11806 14.6184 4.1305 15.0045 4.14095 15.3902C4.15388 15.8483 4.17428 16.3059 4.19069 16.7645C4.20761 17.2785 4.23447 17.793 4.23447 18.3075C4.23447 19.3617 4.27029 20.4148 4.29267 21.4685C4.31755 22.643 4.32053 23.818 4.33297 24.9925C4.33297 25.0428 4.33297 25.0891 4.33297 25.1374C4.33894 25.6603 4.34458 26.1832 4.34988 26.7061C4.34988 26.7504 4.3668 26.8028 4.3081 26.843C4.22441 26.7869 4.15032 26.7174 4.08871 26.6371C3.81809 26.3205 3.53801 26.0114 3.28729 25.6806C2.00681 23.9897 1.07625 22.055 0.551195 19.9919C0.309278 19.0575 0.157338 18.1016 0.0975023 17.1375C0.0862411 16.9294 0.0535648 16.7231 0 16.5219V15.4108C0.0353204 15.2391 0.0825826 15.071 0.0895472 14.8933C0.117215 14.2826 0.188199 13.6748 0.301962 13.0744C0.56628 11.6092 1.03705 10.1901 1.69986 8.86025C2.51184 7.22584 3.59477 5.74444 4.90158 4.48047C5.79661 3.61063 6.78958 2.85028 7.86004 2.21506C9.15652 1.44315 10.5567 0.865428 12.0169 0.499899C13.0586 0.237252 14.1244 0.0844037 15.1972 0.0437976C15.243 0.0437976 15.2967 0.0538657 15.3251 0.0025165L16.3295 0ZM28.0842 18.375C28.0898 18.1251 28.0612 17.8758 27.9991 17.6339C27.6753 16.3683 26.4232 15.6404 25.1511 15.8684C24.6388 15.9636 24.1649 16.2074 23.7871 16.5702C23.6468 16.7006 23.5249 16.8506 23.3936 16.9905C23.3301 17.062 23.2621 17.1293 23.1901 17.1919C23.108 17.2589 23.0339 17.2558 22.9508 17.1884C22.8962 17.1421 22.8462 17.0905 22.8016 17.0343C22.7399 16.9603 22.6862 16.8803 22.6255 16.8058C22.3346 16.4403 21.9585 16.1536 21.531 15.9716C21.3414 15.8865 21.1374 15.8389 20.9301 15.8312C20.4833 15.8166 20.0381 15.8918 19.6203 16.0527C18.8681 16.3547 18.3706 16.8924 18.1681 17.6933C18.0793 18.0704 18.0625 18.4612 18.1184 18.8446C18.1705 19.2121 18.2672 19.5715 18.4064 19.9149C18.6894 20.6351 19.0948 21.2996 19.6043 21.8783C20.647 23.0835 21.6904 24.2885 22.7344 25.4934C22.7703 25.5364 22.8089 25.5771 22.8498 25.6152C22.9991 25.7501 23.1254 25.7526 23.2712 25.6212C23.3291 25.566 23.3838 25.5073 23.4349 25.4455C23.7831 25.0478 24.1313 24.6498 24.4795 24.2514C25.1949 23.4298 25.9128 22.6103 26.6236 21.7846C27.0787 21.2662 27.4463 20.6755 27.7116 20.0362C27.928 19.5041 28.0743 18.9549 28.0842 18.375Z" fill="#4C4C4C"/>
<path d="M107 24.5892L104.589 24.5852H103.623C103.611 24.5366 103.602 24.4874 103.595 24.4377C103.591 24.3657 103.595 24.2927 103.595 24.2207C103.595 16.8143 103.595 9.40798 103.595 2.00161C103.588 1.88657 103.593 1.77102 103.612 1.65727C103.65 1.64853 103.69 1.64264 103.729 1.63965L106.999 1.64267L107 24.5892Z" fill="#4C4C4C"/>
<path d="M68.5465 8.28282C68.576 8.27474 68.6061 8.26934 68.6366 8.26671H71.1995C71.2901 8.58689 71.311 8.90757 71.3677 9.22322C71.4244 9.53887 71.4672 9.85854 71.5194 10.1762C71.5716 10.4939 71.605 10.8115 71.6766 11.1191C71.7637 11.1604 71.8258 11.1478 71.8691 11.0723C71.9015 11.0169 71.9328 10.961 71.9661 10.9057C72.5387 9.95167 73.2869 9.17741 74.2515 8.62566C75.0592 8.16255 75.9783 7.93596 76.906 7.9712C77.3195 7.97864 77.7321 8.01108 78.1417 8.06837C78.2326 8.07712 78.3214 8.10058 78.4049 8.13784C78.3905 8.33921 78.376 8.53403 78.3596 8.75302C78.4342 8.72231 78.4865 8.7062 78.5337 8.68053C78.8491 8.50785 79.164 8.33468 79.4829 8.17056C79.5326 8.14665 79.5767 8.11235 79.6123 8.06991C79.6479 8.02747 79.6741 7.97787 79.6894 7.92439C79.9381 7.16925 80.1968 6.41663 80.4515 5.66351C80.551 5.37404 80.6465 5.08458 80.745 4.79561C80.7604 4.7503 80.7818 4.70701 80.8032 4.65616C81.0325 4.62646 81.2624 4.64559 81.4917 4.64257C81.7305 4.63905 81.9693 4.63955 82.2081 4.64257C82.4359 4.64509 82.6652 4.62847 82.8936 4.65415C82.9344 4.75483 82.9204 4.84193 82.9204 4.92851C82.9204 5.94274 82.9204 6.95731 82.9204 7.97221C82.9204 8.0593 82.9244 8.1464 82.9264 8.23147C83.0214 8.28182 83.111 8.26369 83.1955 8.26369C84.1981 8.26571 85.2007 8.26571 86.2032 8.26369C86.5515 8.26369 86.9037 8.26369 87.2539 8.26369C87.3315 8.26369 87.4091 8.27125 87.4663 8.27376C87.479 8.28418 87.4908 8.29563 87.5016 8.30799C87.5053 8.31516 87.5071 8.3231 87.5071 8.33115C87.5096 8.38149 87.5141 8.42731 87.5141 8.47564C87.5141 9.25661 87.5129 10.0376 87.5106 10.8186C87.508 10.836 87.503 10.8529 87.4957 10.8689C87.4196 10.9263 87.329 10.9021 87.2439 10.9021C86.3929 10.9041 85.5416 10.9041 84.6899 10.9021C84.1885 10.9021 83.6872 10.9021 83.1861 10.9021C83.108 10.9021 83.0299 10.9087 82.9373 10.9122C82.9304 10.9686 82.9224 11.0129 82.9199 11.0602C82.917 11.1166 82.9199 11.173 82.9199 11.2294C82.9199 13.9747 82.9199 16.7202 82.9199 19.4659C82.9199 19.7473 82.9199 20.0292 82.9781 20.3071C82.999 20.4078 83.0179 20.513 83.0473 20.6127C83.2607 21.3421 83.7522 21.7786 84.4641 21.9759C84.7748 22.0552 85.0961 22.0839 85.4157 22.061C86.0759 22.036 86.7309 21.9319 87.3668 21.7509C87.4569 21.7242 87.5489 21.7061 87.6414 21.6834C87.6743 21.8717 87.6812 24.0103 87.6504 24.2917C87.5778 24.3224 87.5012 24.3596 87.4176 24.3888C86.8601 24.5804 86.2846 24.7135 85.7003 24.786C85.1012 24.8699 84.4955 24.896 83.8915 24.8641C83.2776 24.8293 82.6752 24.7317 82.0966 24.5077C81.0669 24.1089 80.3465 23.3921 79.9252 22.3631C79.7311 21.8777 79.603 21.368 79.5441 20.8478C79.4888 20.3681 79.4631 19.8854 79.467 19.4024C79.467 16.6816 79.467 13.9604 79.467 11.2389C79.4741 11.1315 79.4682 11.0237 79.4496 10.9177C79.3003 10.8916 79.1596 10.9062 79.0183 10.9041C78.8677 10.9015 78.7166 10.9015 78.5651 10.9041C78.4238 10.9041 78.2815 10.8906 78.1373 10.9208L78.0731 11.3467C78.0104 11.3361 77.9656 11.3311 77.9213 11.321C77.5169 11.2316 77.1045 11.184 76.6906 11.179C75.8529 11.1654 75.0395 11.2993 74.2958 11.7162C73.2436 12.3062 72.5521 13.1967 72.1965 14.3556C72.0356 14.8961 71.9563 15.458 71.9612 16.0225C71.9592 18.7675 71.9592 21.5128 71.9612 24.2585V24.5379C71.8706 24.6119 71.7796 24.5837 71.6955 24.5837C70.7802 24.586 69.865 24.586 68.95 24.5837C68.8545 24.5837 68.7589 24.5837 68.6639 24.5837C68.6256 24.5837 68.5878 24.5751 68.551 24.5706C68.5397 24.5456 68.5317 24.5192 68.5271 24.492C68.5271 19.1135 68.5271 13.7352 68.5271 8.35733C68.5302 8.33173 68.5368 8.30667 68.5465 8.28282Z" fill="#4C4C4C"/>
<path d="M91.2431 17.2276C91.2103 17.3983 91.2361 17.5665 91.2506 17.7311C91.2895 18.2289 91.3858 18.7204 91.5376 19.1955C91.7224 19.7885 92.0308 20.3345 92.442 20.7964C92.8694 21.2668 93.4057 21.6221 94.0026 21.8304C94.522 22.0131 95.067 22.11 95.6169 22.1174C96.74 22.15 97.8621 22.0222 98.9499 21.7378C99.6179 21.5553 100.272 21.3242 100.907 21.0461C100.965 21.0209 101.024 20.9958 101.084 20.9746C101.097 20.9701 101.113 20.9776 101.146 20.9817C101.179 21.0824 101.158 21.1956 101.162 21.3049C101.165 21.4252 101.162 21.546 101.162 21.6668V23.7485C101.109 23.7792 101.062 23.8109 101.012 23.8341C100.125 24.2533 99.1835 24.5427 98.2157 24.6934C97.193 24.8505 96.1578 24.9068 95.1244 24.8616C94.0847 24.8173 93.0693 24.6365 92.1037 24.2293C90.4009 23.5114 89.1861 22.284 88.4329 20.5865C88.1081 19.8555 87.913 19.0858 87.8001 18.2934C87.7078 17.6482 87.6672 16.9965 87.6787 16.3446C87.7006 15.1329 87.8409 13.9383 88.2314 12.7839C88.5995 11.695 89.1607 10.7229 89.9696 9.90636C90.8063 9.06162 91.8058 8.50785 92.9499 8.21688C93.7076 8.03082 94.4864 7.94853 95.2657 7.97221C95.8943 7.98113 96.52 8.06083 97.1312 8.20983C98.2614 8.49325 99.2469 9.03846 100.062 9.88472C100.805 10.656 101.303 11.5712 101.6 12.6032C101.811 13.3298 101.925 14.0817 101.939 14.8389C101.952 15.5633 101.948 16.2878 101.951 17.0122C101.951 17.0666 101.943 17.1214 101.938 17.1879C101.883 17.1939 101.838 17.2025 101.792 17.2035C101.713 17.2035 101.633 17.2035 101.554 17.2035C98.2123 17.2035 94.8708 17.2035 91.5292 17.2035C91.4351 17.203 91.3406 17.1859 91.2431 17.2276ZM91.3048 14.6899H98.2614C98.3171 14.6899 98.3729 14.6924 98.4286 14.6899C98.4739 14.6874 98.5191 14.6773 98.5699 14.6698C98.5755 14.627 98.5787 14.584 98.5793 14.5409C98.5723 14.4206 98.5614 14.3002 98.5529 14.1799C98.5247 13.6894 98.4258 13.2057 98.2594 12.7442C97.8615 11.6739 97.1262 10.9822 96.0154 10.7118C95.6345 10.626 95.2438 10.594 94.8543 10.6167C93.4807 10.6726 92.4649 11.3029 91.8361 12.5503C91.5734 13.0719 91.4277 13.6302 91.3386 14.2051C91.3177 14.3541 91.272 14.5031 91.3048 14.6899Z" fill="#4C4C4C"/>
<path d="M62.4699 8.27779C62.5137 8.27326 62.5515 8.26571 62.5898 8.26571C63.6783 8.26571 64.7672 8.26571 65.8686 8.26571C65.8786 8.32662 65.89 8.37143 65.893 8.41673C65.8965 8.48067 65.893 8.54561 65.893 8.61005V24.556C65.8526 24.5691 65.8112 24.5783 65.7691 24.5837C64.94 24.5837 64.1124 24.5837 63.2863 24.5837C63.2591 24.5814 63.2322 24.5772 63.2057 24.5711C63.1559 24.5026 63.147 24.4125 63.1281 24.3289C62.9962 23.749 62.8674 23.1685 62.7365 22.5881C62.7281 22.5493 62.7142 22.5121 62.7037 22.4784C62.6017 22.428 62.5385 22.4587 62.4749 22.5423C62.3197 22.7567 62.1537 22.9629 61.9774 23.16C61.4501 23.7258 60.8083 24.1225 60.097 24.408C59.4958 24.6448 58.8636 24.791 58.2205 24.8419C57.3398 24.9208 56.4525 24.8684 55.5869 24.6864C54.9848 24.566 54.4083 24.3395 53.8836 24.0173C53.0533 23.4978 52.4906 22.7588 52.1399 21.8461C51.942 21.3189 51.8103 20.7687 51.7479 20.2084C51.6955 19.7528 51.6704 19.2943 51.6728 18.8356C51.6728 15.422 51.6728 12.0085 51.6728 8.59495C51.6728 8.49426 51.6569 8.38703 51.6942 8.29289C51.8981 8.25765 54.9054 8.25765 55.1223 8.29289C55.1277 8.33417 55.1362 8.37998 55.1382 8.4258C55.1412 8.49829 55.1382 8.57078 55.1382 8.64327C55.1382 11.8961 55.1382 15.1487 55.1382 18.4011C55.1319 18.8684 55.182 19.3346 55.2874 19.7896C55.3438 20.0239 55.418 20.2535 55.5093 20.4762C55.8307 21.2475 56.4008 21.7318 57.2007 21.9392C57.6185 22.043 58.049 22.0845 58.4787 22.0625C58.8925 22.0517 59.3036 21.9916 59.7035 21.8833C60.7243 21.5933 61.4576 20.9681 61.8749 19.9758C61.9401 19.8208 62.0008 19.6627 62.0515 19.5021C62.2008 19.0099 62.3021 18.504 62.354 17.9918C62.4196 17.3434 62.4491 16.6918 62.4425 16.0401C62.4425 13.5522 62.4425 11.0644 62.4425 8.57682C62.4354 8.4763 62.4447 8.37528 62.4699 8.27779Z" fill="#4C4C4C"/>
<path d="M50.8415 24.2816C50.6089 24.3943 50.3649 24.4809 50.1137 24.5399C49.5371 24.6943 48.9478 24.7954 48.3532 24.8419C47.9252 24.8787 47.4952 24.8861 47.0662 24.8641C46.4444 24.8283 45.835 24.7271 45.2499 24.4976C44.248 24.1044 43.5426 23.4036 43.1218 22.4054C42.9285 21.9373 42.7977 21.4454 42.7327 20.9424C42.6735 20.4877 42.6457 20.0293 42.6497 19.5706C42.6517 16.7937 42.6517 14.0168 42.6497 11.2399C42.6569 11.1321 42.6511 11.0237 42.6323 10.9172C42.5477 10.9127 42.4701 10.9052 42.393 10.9052C41.8283 10.9052 41.2632 10.9052 40.6986 10.9052C40.621 10.9052 40.5394 10.9248 40.4683 10.8765C40.4374 10.6972 40.4295 9.71506 40.4573 9.36871C40.5021 9.34052 40.5528 9.30377 40.6066 9.27457C41.2871 8.90707 41.9661 8.53756 42.6502 8.17761C42.703 8.15173 42.7498 8.11493 42.7877 8.06957C42.8256 8.02422 42.8536 7.97133 42.87 7.91432C43.2063 6.90747 43.5453 5.90297 43.8869 4.90083C43.9147 4.81776 43.9471 4.73621 43.9784 4.64911H46.0772C46.0904 4.70252 46.0994 4.75689 46.1041 4.81172C46.1071 5.06343 46.1041 5.31112 46.1041 5.56031C46.1041 6.36579 46.1041 7.17126 46.1041 7.97674C46.1041 8.06333 46.1091 8.15042 46.1116 8.23752C46.2081 8.28282 46.2966 8.2652 46.3817 8.26571C47.5912 8.26571 48.8004 8.26571 50.0093 8.26571C50.1684 8.26571 50.3276 8.26571 50.4868 8.26571C50.5415 8.26571 50.5963 8.27276 50.6594 8.27678C50.6747 8.31453 50.6857 8.35387 50.6923 8.39408C50.6923 9.19083 50.6923 9.98775 50.6923 10.7848C50.6897 10.8133 50.6852 10.8416 50.6788 10.8694C50.6376 10.8838 50.5951 10.8944 50.552 10.9011C50.4804 10.9072 50.4087 10.9011 50.3371 10.9011H46.423C46.3295 10.9011 46.2354 10.9057 46.1295 10.9082C46.122 10.9686 46.1146 11.0139 46.1116 11.0592C46.1086 11.1045 46.1116 11.1559 46.1116 11.2042C46.1116 14.0294 46.1116 16.8546 46.1116 19.6798C46.1066 20.0101 46.1519 20.3391 46.2459 20.6555C46.4484 21.3034 46.8807 21.7182 47.5095 21.9326C47.8696 22.056 48.2427 22.0761 48.6178 22.058C49.1821 22.0337 49.7426 21.9533 50.2913 21.8179C50.4221 21.7846 50.552 21.7454 50.6823 21.7106C50.7276 21.6991 50.7739 21.692 50.8346 21.6794C50.8451 21.7183 50.8523 21.7581 50.8559 21.7982C50.8559 22.595 50.8559 23.3919 50.8559 24.189C50.8532 24.2202 50.8484 24.2511 50.8415 24.2816Z" fill="#4C4C4C"/>
<path d="M11.6274 10.587C11.6198 10.7041 11.6049 10.8207 11.5826 10.9359C11.4831 11.3265 11.2344 11.5757 10.8498 11.684C10.6652 11.7332 10.4737 11.751 10.2832 11.7368C10.0753 11.7252 9.90365 11.6271 9.75441 11.4851C9.54387 11.2906 9.41053 11.0252 9.37932 10.7384C9.3481 10.4517 9.42113 10.1632 9.58477 9.927C9.8534 9.53937 10.234 9.39338 10.6872 9.4704C11.1299 9.54541 11.4383 9.80266 11.5766 10.2421C11.6034 10.3554 11.6204 10.4708 11.6274 10.587Z" fill="#4C4C4C"/>
</g>
</g>
<defs>
<filter id="filter0_d_231_1205" x="-2" y="0" width="115" height="38.0025" filterUnits="userSpaceOnUse" color-interpolation-filters="sRGB">
<feFlood flood-opacity="0" result="BackgroundImageFix"/>
<feColorMatrix in="SourceAlpha" type="matrix" values="0 0 0 0 0 0 0 0 0 0 0 0 0 0 0 0 0 0 127 0" result="hardAlpha"/>
<feOffset dx="2" dy="4"/>
<feGaussianBlur stdDeviation="2"/>
<feComposite in2="hardAlpha" operator="out"/>
<feColorMatrix type="matrix" values="0 0 0 0 0 0 0 0 0 0 0 0 0 0 0 0 0 0 0.15 0"/>
<feBlend mode="normal" in2="BackgroundImageFix" result="effect1_dropShadow_231_1205"/>
<feBlend mode="normal" in="SourceGraphic" in2="effect1_dropShadow_231_1205" result="shape"/>
</filter>
<clipPath id="clip0_231_1205">
<rect width="107" height="30" fill="white"/>
</clipPath>
</defs>
</svg>
