<svg width="244" height="299" viewBox="0 0 244 299" fill="none" xmlns="http://www.w3.org/2000/svg">
<path d="M167.941 -6.57421L172.88 -8.32404C173.041 -8.31633 173.203 -8.31864 173.363 -8.33093C174.783 -8.54253 176.169 -8.84703 177.624 -8.9591C184.233 -9.43341 190.256 -7.53423 195.895 -4.22948C202.193 -0.464269 207.972 4.10644 213.086 9.36688C224.143 20.3413 232.962 33.3585 239.053 47.6956C239.596 48.9968 240.179 50.284 240.73 51.5227L243.215 58.5364C243.248 58.7785 243.268 59.0252 243.317 59.247C244.652 64.4499 246.196 69.6088 247.287 74.8608C249.392 85.4542 250.505 96.2211 250.61 107.022C250.923 122.669 249.57 138.189 247.284 153.652C244.074 174.708 239.602 195.553 233.891 216.074C228.772 234.803 223.405 253.463 218.132 272.157C216.005 279.622 213.876 287.07 211.747 294.502C211.1 296.747 209.792 298.391 207.392 298.83C206.396 298.994 205.382 299.032 204.376 298.942C199.553 298.575 195.126 296.835 190.773 294.882C181.998 290.841 173.526 286.176 165.421 280.921C150.29 271.345 135.729 260.932 121.494 250.067C108.59 240.218 95.968 229.984 83.8333 219.227C71.2907 208.099 59.2332 196.463 47.2697 184.734C39.5601 177.167 32.1113 169.365 25.541 160.774C18.7473 151.911 12.7376 142.561 8.17289 132.334C7.77546 131.444 7.34483 130.566 6.93413 129.681L4.45411 122.68C4.41085 122.39 4.37851 122.087 4.30633 121.799C3.84148 119.918 3.27664 118.049 2.91608 116.145C0.834698 105.513 0.155268 94.6537 0.895114 83.8441C1.37773 77.0862 2.53168 70.4936 5.64137 64.3808C9.38266 57.0135 15.238 52.5344 23.4896 51.3811C29.5615 50.5295 35.5 51.3682 41.3541 52.9388C49.4536 55.1105 56.9927 58.6533 64.3797 62.5262C76.5852 69.0343 88.0982 76.7637 98.742 85.5956C105.776 91.3411 112.677 97.2161 119.686 103.06C120.066 103.373 120.474 103.64 120.976 104L121.136 103.017C122.287 95.4471 123.304 87.8352 124.68 80.2676C127.965 62.3526 132.681 44.827 140.05 28.0862C143.203 20.9349 146.765 14.012 151.534 7.77426C155.157 3.02553 159.214 -1.27937 164.311 -4.48171C165.489 -5.22758 166.731 -5.87671 167.941 -6.57421Z" fill="white"/>
</svg>
