<svg width="214" height="224" viewBox="0 0 214 224" fill="none" xmlns="http://www.w3.org/2000/svg">
<g filter="url(#filter0_d_431_46)">
<path d="M176.392 65.3352C180.043 62.1485 184.304 59.7359 188.917 58.2446C193.53 56.7533 198.397 56.2145 203.221 56.6611C205.91 56.9234 209.812 56.4897 209.698 53.7978C209.641 53.2472 209.48 52.7126 209.224 52.2219C205.464 43.7642 201.692 35.2827 196.931 27.3504C194.967 24.0759 192.818 20.8759 190.109 18.1785C186.642 14.7115 180.77 12.1953 177.04 15.3928C178.361 13.174 177.486 10.1837 175.704 8.32005C173.922 6.45638 171.438 5.45878 169.035 4.51559C164.887 2.89563 160.676 1.24074 156.238 0.835277C151.8 0.429816 147.027 1.42825 143.79 4.49138C142.85 8.66133 145.224 12.7484 146.981 16.6405C151.496 26.7312 152.2 38.1164 148.965 48.6993L176.392 65.3352Z" fill="#4C4C4C"/>
<path d="M176.765 63.0434C178.792 58.8665 183.226 56.5078 187.357 54.3754C187.949 54.0684 188.561 53.7376 188.915 53.1681C189.9 51.5532 188.072 49.7173 186.471 48.709C188.027 47.9205 188.657 45.937 188.407 44.222C188.158 42.5071 187.21 40.973 186.288 39.5079L182.585 33.6128C181.588 32.0293 180.025 30.2117 178.239 30.7609C177.424 31.0092 176.632 31.7431 175.849 31.4146C174.77 30.9672 175.253 29.3876 175.378 28.2266C175.615 26.0282 173.385 23.9429 171.205 24.2964C169.589 24.5645 168.202 25.9109 166.572 25.7916C165.865 25.7402 165.213 25.4127 164.583 25.0919L157.99 21.7381C156.36 20.911 154.444 20.0689 152.773 20.8171C151.401 21.4312 150.657 22.9776 150.515 24.4677C150.373 25.9578 150.719 27.4484 150.934 28.9308C151.499 32.8471 151.173 36.8418 149.979 40.6185C154.624 40.0981 158.853 43.1386 162.34 46.2354C166.665 50.0819 170.672 54.2703 174.322 58.76L176.765 63.0434Z" fill="#4D4875"/>
<path d="M118.705 104.476C114.56 102.563 109.669 103.424 105.331 104.868C101.739 106.062 98.2815 107.624 95.0128 109.531C91.5492 111.548 88.194 113.993 84.2603 114.763C77.9078 116.012 71.6742 112.676 65.966 109.645C52.6372 102.571 38.7633 96.567 24.4755 91.6901C22.5967 91.0485 20.3559 89.9696 20.3288 87.9882C20.3099 86.5884 21.4625 85.4818 22.5253 84.5662L38.4012 70.8842C42.7471 67.1383 47.183 63.3369 52.4491 61.0591C60.074 57.7632 68.6696 57.9631 76.9169 56.9772C87.8159 55.6726 98.3691 52.2334 109.246 50.7584C120.123 49.2835 131.933 50.0558 140.885 56.371L139.95 57.9021L118.705 104.476Z" fill="#BBA8B8"/>
<path d="M65.9364 109.696C71.6425 112.727 77.8781 116.063 84.2278 114.812C88.16 114.038 91.5152 111.593 94.9803 109.58C98.2497 107.673 101.708 106.111 105.3 104.917C109.637 103.474 114.529 102.611 118.672 104.526L119.805 102.043L118.17 92.881C111.492 90.8476 104.346 93.974 98.5052 97.807C92.6648 101.64 87.1371 106.363 80.3509 108.036C72.1251 110.078 63.6453 107.298 55.5831 104.471C59.0741 106.142 62.5252 107.883 65.9364 109.696Z" fill="#4D4875"/>
<path d="M131.878 114.2C135.185 117.34 136.289 122.007 136.659 126.357C136.967 129.928 136.895 133.522 136.444 137.079C135.964 140.813 135.053 144.595 135.881 148.367C137.2 154.467 142.579 159.046 147.483 163.245C158.923 173.041 169.621 183.666 179.491 195.035C180.788 196.529 182.612 198.207 184.399 197.627C185.66 197.211 186.206 195.832 186.62 194.593L192.777 176.088C194.463 171.022 196.165 165.86 196.182 160.416C196.208 152.54 192.727 144.868 190.445 137.144C187.429 126.936 186.468 116.38 183.608 106.14C180.748 95.9008 175.53 85.5101 166.437 79.4038C166.101 79.8412 165.763 80.2793 165.425 80.7124L131.878 114.2Z" fill="#BBA8B8"/>
<path d="M146.623 162.423C141.736 158.214 136.367 153.61 135.251 147.253C134.571 143.314 135.642 139.316 136.286 135.368C136.894 131.641 137.112 127.862 136.937 124.092C136.726 119.538 135.773 114.68 132.484 111.515L134.4 109.57L143.573 107.791C147.879 113.271 147.526 121.044 146.038 127.855C144.551 134.666 142.123 141.507 142.987 148.417C144.036 156.806 149.686 163.698 155.235 170.17C152.417 167.532 149.546 164.949 146.623 162.423Z" fill="#4D4875"/>
<path d="M14.8966 89.5408C11.4139 88.5761 9.60567 86.168 6.3951 84.5178C5.77433 84.1982 5.12878 83.8019 4.86953 83.1572C4.24316 81.5899 6.23165 80.2729 7.86284 79.8451C11.3998 78.9145 15.0775 78.6443 18.7104 79.0482C17.7106 78.7416 16.6561 78.4022 15.9667 77.6127C15.2773 76.8233 15.1755 75.4386 16.0286 74.8324C16.4552 74.5294 17.007 74.486 17.5264 74.4518C18.768 74.3686 20.0042 74.2881 21.235 74.2104C19.9742 73.887 19.991 71.8948 20.9979 71.0702C22.0049 70.2457 23.4224 70.2309 24.7305 70.1693C27.601 70.0379 30.4367 69.4807 33.1443 68.5162C33.7309 68.3085 34.4374 67.8066 34.1888 67.2388C34.0178 66.8503 33.5071 66.7674 33.1646 66.5204C32.2286 65.8421 32.9508 64.2202 34.0436 63.8333C35.1364 63.4464 36.3409 63.7185 37.4944 63.5905C38.9314 63.4286 40.2051 62.6308 41.481 61.9533C49.8307 57.46 59.6651 56.9719 69.1139 56.2092C83.3179 55.0579 97.4545 53.0632 111.488 50.549C118.676 49.2635 126.476 47.9228 132.953 51.2654C130.506 53.2056 127.089 53.1396 123.968 53.111C110.097 52.9847 96.313 55.3755 83.2892 60.1667C77.2741 62.3818 71.2091 65.1563 64.8028 64.9606C60.3474 64.8297 55.5059 63.3387 51.6792 65.6296C48.4507 67.5638 47.0039 71.6898 43.7154 73.5217C42.9472 73.9504 42.0586 74.2745 41.5771 75.0081C41.1351 75.6849 41.1496 76.5469 40.9553 77.3309C39.825 81.8865 32.8966 81.8922 30.0587 85.6364C27.8052 88.6081 33.4408 93.7287 35.2071 95.6075C30.4556 94.5123 27.321 94.073 25.5915 93.3548C22.2443 91.9715 18.3892 90.5067 14.8966 89.5408Z" fill="#4C4C4C"/>
<path d="M193.55 214.294C193.936 214.806 194.339 215.336 194.898 215.656C196.268 216.444 198.029 215.583 198.642 214.245C199.255 212.906 199.016 211.302 198.671 209.808C197.467 204.711 195.19 199.929 191.993 195.779C194.198 195.949 196.725 200.086 197.613 199.059C199.07 198.341 199.262 196.311 198.698 194.719C198.135 193.127 197.046 191.721 196.46 190.135C195.875 188.548 195.978 186.525 197.387 185.725C198.07 185.338 199.064 185.183 199.233 184.416C199.272 184.08 199.221 183.741 199.085 183.432L197.551 178.836C198.847 177.612 201.242 179.361 202.964 178.773C203.578 178.53 204.078 178.063 204.361 177.468C205.614 175.095 204.396 172.067 203.065 169.545C201.733 167.023 200.226 164.22 200.953 161.616C201.195 160.749 201.677 159.965 201.823 159.07C202.069 157.557 201.324 156.003 200.598 154.573L197.659 148.769C197.128 147.722 196.593 146.661 196.339 145.54C196.043 144.233 196.137 142.907 196.1 141.585C196.011 138.433 195.166 135.299 194.328 132.198C192.684 126.128 191.038 120.044 188.799 114.117C185.768 106.096 181.676 98.421 177.129 91.0238C182.794 106.837 185.121 123.357 187.416 139.749C188.049 144.276 188.685 148.848 188.308 153.329C188.091 155.927 187.537 158.487 187.68 161.114C187.83 163.827 188.72 166.496 189.252 169.189C189.735 171.621 189.921 174.102 189.807 176.579C189.763 177.545 189.514 178.7 188.57 178.937C188.067 179.063 187.507 178.869 186.991 178.947C185.514 179.17 185.406 181.147 185.564 182.629C185.796 184.778 185.857 186.999 185.076 188.945C183.972 191.691 176.168 191.27 176.168 191.27C176.168 191.27 179.658 195.829 181.414 198.163L193.55 214.294Z" fill="#4C4C4C"/>
<path d="M95.331 129.965C95.7108 134.147 98.3184 138.147 102.169 139.855C106.224 141.663 111.043 140.822 115.04 138.877C119.037 136.932 122.437 133.987 126.032 131.371C136.077 124.066 147.854 119.191 157.068 110.88C166.855 102.038 175.144 90.5812 177.98 77.7239C181.269 62.7794 173.002 38.7544 167.868 36.6731C155.695 31.7286 133.606 47.1591 116.107 64.1883C108.064 72.0251 105.182 85.8754 104.295 95.8903C103.844 100.958 101.394 113.494 99.2008 118.209C97.3433 122.165 94.9094 125.3 95.331 129.965Z" fill="#9787AB"/>
<path d="M107.69 129.538C107.69 129.538 111.928 123.126 110.439 121.382C108.949 119.638 102.466 125.117 102.466 125.117L103.382 129.307L107.69 129.538Z" fill="#4C4C4C"/>
<path d="M106.92 132.163C105.98 132.873 104.742 133.045 103.578 132.923C102.961 132.88 102.361 132.697 101.826 132.388C101.56 132.232 101.331 132.02 101.154 131.767C100.977 131.515 100.857 131.227 100.802 130.924C99.7105 130.75 98.8483 129.748 98.7133 128.653C98.6639 128.102 98.7504 127.547 98.9651 127.037C99.1798 126.526 99.5163 126.076 99.9453 125.725C100.82 125.031 101.911 124.664 103.028 124.69C102.575 125.882 103.296 127.259 104.352 127.973C104.918 128.334 105.543 128.595 106.198 128.745C106.646 128.859 107.66 128.835 107.946 129.193C108.621 130.035 107.569 131.669 106.92 132.163Z" fill="#4D4875"/>
<path d="M107.391 137.411C106.793 136.672 107.231 135.35 108.361 134.437C109.491 133.523 110.882 133.373 111.476 134.101C112.07 134.83 111.633 136.16 110.506 137.075C109.378 137.99 107.982 138.139 107.391 137.411Z" fill="#AEAEAF"/>
<path d="M108.085 136.846C107.695 136.367 107.98 135.489 108.725 134.885C109.469 134.282 110.384 134.186 110.79 134.66C111.196 135.134 110.895 136.02 110.15 136.621C109.405 137.223 108.477 137.328 108.085 136.846Z" fill="#BA5535"/>
<path d="M108.811 136.442C108.51 136.263 108.551 135.821 108.891 135.435C109.231 135.048 109.754 134.892 110.054 135.071C110.353 135.25 110.316 135.691 109.976 136.077C109.636 136.463 109.112 136.618 108.811 136.442Z" fill="#4C4C4C"/>
<path d="M109.644 136.021C109.483 135.822 109.602 135.456 109.913 135.213C110.225 134.97 110.608 134.92 110.77 135.121C110.932 135.323 110.812 135.686 110.501 135.929C110.189 136.173 109.801 136.203 109.644 136.021Z" fill="white"/>
<path d="M96.562 127.538C96.3818 127.029 96.8583 125.891 97.6444 124.988C98.4305 124.085 99.2204 123.765 99.409 124.27C99.5976 124.776 99.1134 125.919 98.3294 126.822C97.5455 127.724 96.7534 128.045 96.562 127.538Z" fill="#AEAEAF"/>
<path d="M97.0494 126.983C96.9306 126.647 97.2434 125.895 97.7636 125.304C98.2838 124.714 98.8028 124.497 98.928 124.83C99.0532 125.164 98.7341 125.918 98.2138 126.509C97.6936 127.099 97.1746 127.316 97.0494 126.983Z" fill="#BA5535"/>
<path d="M97.5227 126.549C97.3916 126.448 97.496 126.083 97.7518 125.722C98.0075 125.36 98.3222 125.159 98.4533 125.26C98.5843 125.361 98.4799 125.725 98.2242 126.087C97.9684 126.448 97.6537 126.65 97.5227 126.549Z" fill="#4C4C4C"/>
<path d="M98.0536 126.083C98.0043 125.944 98.1323 125.632 98.3517 125.384C98.5711 125.135 98.7855 125.047 98.837 125.186C98.8884 125.324 98.7582 125.636 98.5389 125.885C98.3195 126.134 98.1072 126.221 98.0536 126.083Z" fill="white"/>
<path d="M165.774 77.5765C166.834 77.3341 167.97 77.0484 168.687 76.2316C169.319 75.5086 169.509 74.515 169.647 73.5585C169.785 72.6021 169.932 71.5569 169.691 70.6064C169.637 70.3012 169.486 70.0215 169.26 69.8084C169.147 69.7059 169.001 69.6452 168.848 69.6363C168.695 69.6274 168.544 69.6709 168.419 69.7596C168.319 69.8547 168.245 69.9724 168.201 70.1025C167.672 71.4279 168.205 73.1897 167.158 74.1639C166.506 74.7654 165.52 74.7655 164.635 74.7295C164.448 74.7218 164.239 74.7032 164.127 74.5552C164.086 74.4833 164.061 74.4035 164.053 74.3211C164.045 74.2386 164.055 74.1555 164.082 74.077C164.55 71.9655 166.986 70.5612 167.034 68.4011C167.043 67.9609 166.912 67.4703 166.536 67.2424C165.89 66.8532 165.11 67.4621 164.626 68.042C163.684 69.1742 162.836 70.3818 162.092 71.6527C161.996 71.847 161.86 72.0195 161.694 72.1592C161.168 72.545 160.358 72.074 160.208 71.4406C160.057 70.8072 160.363 70.155 160.735 69.6191C161.358 68.7221 162.179 67.9795 163.134 67.4488C163.301 67.3745 163.447 67.2616 163.561 67.1196C163.801 66.7471 163.438 66.2128 163.008 66.1418C162.577 66.0708 162.137 66.2693 161.754 66.4907C161.004 66.9205 160.294 67.4159 159.632 67.9711C159.206 68.2901 158.854 68.6976 158.601 69.1653C158.203 70.0191 158.423 71.0175 158.649 71.9308C158.954 73.1507 159.266 74.3946 159.924 75.466C161.241 77.6249 163.513 78.0917 165.774 77.5765Z" fill="#F29B91"/>
<path d="M145.282 61.8565C146.369 61.9232 147.534 61.9714 148.454 61.3916C149.264 60.8671 149.727 59.9667 150.138 59.0992C150.548 58.2317 150.979 57.2688 151.019 56.2781C151.052 55.9709 150.986 55.6615 150.832 55.3939C150.753 55.2636 150.631 55.1643 150.487 55.1125C150.343 55.0607 150.185 55.0594 150.04 55.1088C149.918 55.1722 149.812 55.2642 149.733 55.377C148.85 56.4996 148.861 58.3467 147.582 58.9894C146.789 59.3818 145.842 59.1019 145.004 58.8164C144.911 58.7987 144.824 58.7611 144.748 58.706C144.671 58.6509 144.608 58.5798 144.562 58.4976C144.544 58.4169 144.542 58.3331 144.558 58.2517C144.574 58.1703 144.607 58.0931 144.655 58.0253C145.706 56.1327 148.439 55.4737 149.097 53.4138C149.232 52.9931 149.246 52.4869 148.949 52.1617C148.442 51.6047 147.521 51.9713 146.886 52.3932C145.659 53.2124 144.502 54.1308 143.426 55.139C143.279 55.2979 143.101 55.4256 142.903 55.5141C142.287 55.7323 141.646 55.0538 141.68 54.4027C141.714 53.7515 142.196 53.2128 142.704 52.8047C143.556 52.1203 144.553 51.6396 145.619 51.3996C145.8 51.3764 145.973 51.3095 146.122 51.2048C146.459 50.917 146.264 50.3114 145.867 50.1072C145.471 49.9031 144.999 49.9824 144.568 50.0921C143.728 50.294 142.907 50.5686 142.115 50.9129C141.617 51.0982 141.164 51.3897 140.79 51.767C140.16 52.4652 140.091 53.4947 140.049 54.4337C139.994 55.6911 139.94 56.974 140.266 58.1893C140.927 60.6211 142.969 61.713 145.282 61.8565Z" fill="#F29B91"/>
<path d="M163.595 76.1024L160.205 80.9592C159.596 81.8306 158.963 82.7272 158.056 83.2834C157.739 83.5051 157.355 83.6094 156.969 83.578C156.513 83.5019 156.164 83.1501 155.86 82.8088C154.988 81.8252 154.142 80.535 154.555 79.2841C154.852 78.3784 155.719 77.8053 156.527 77.3007C158.181 76.2698 159.834 75.2398 161.484 74.2105C161.702 74.0737 161.921 73.9369 162.14 73.8023C162.266 73.7219 162.53 73.7876 162.429 73.8973L163.595 76.1024Z" fill="#F29B91"/>
<path d="M140.826 58.1097C139.674 59.1277 138.6 60.2306 137.614 61.409C136.946 62.2156 136.274 63.1378 136.238 64.1391C136.239 64.4503 136.304 64.7578 136.431 65.0419C136.558 65.3261 136.742 65.5807 136.973 65.7896C137.204 65.9984 137.476 66.1569 137.772 66.2549C138.068 66.3529 138.381 66.3883 138.692 66.3588C139.051 66.3296 139.394 66.1975 139.68 65.9783C140.253 65.5115 140.382 64.7295 140.558 64.0352C140.885 62.7873 141.488 61.6278 142.323 60.6421C142.712 60.1839 143.159 59.7451 143.386 59.1993C143.612 58.6536 143.539 57.957 143.035 57.6982L140.826 58.1097Z" fill="#F29B91"/>
<path d="M132.545 121.057C134.256 120.17 135.881 119.127 137.399 117.941C137.786 117.64 137.35 117.008 136.964 117.316C135.445 118.502 133.82 119.545 132.109 120.432C132.026 120.49 131.97 120.579 131.952 120.679C131.934 120.778 131.956 120.881 132.014 120.964C132.073 121.045 132.162 121.099 132.26 121.116C132.359 121.134 132.461 121.112 132.545 121.057Z" fill="#AEAEAF"/>
<path d="M140.08 118.558L146.099 113.889C146.484 113.591 146.05 112.956 145.661 113.265L139.644 117.933C139.256 118.231 139.693 118.866 140.08 118.558Z" fill="#AEAEAF"/>
<path d="M149.93 113.234C151.53 111.641 153.129 110.049 154.727 108.459C155.08 108.11 154.49 107.623 154.145 107.966C152.545 109.559 150.947 111.154 149.352 112.752C148.998 113.1 149.586 113.588 149.934 113.244L149.93 113.234Z" fill="#AEAEAF"/>
<path d="M147.865 109.313L151.969 105.47C152.033 105.392 152.064 105.293 152.056 105.193C152.048 105.093 152.001 105 151.925 104.934C151.847 104.871 151.747 104.84 151.646 104.849C151.546 104.857 151.453 104.904 151.386 104.98C150.017 106.257 148.649 107.538 147.282 108.823C147.217 108.9 147.185 109 147.193 109.1C147.201 109.201 147.249 109.293 147.326 109.359C147.404 109.422 147.504 109.452 147.604 109.444C147.705 109.435 147.798 109.388 147.865 109.313Z" fill="#AEAEAF"/>
<path d="M149.97 102.435L152.461 98.909C152.524 98.8308 152.555 98.7311 152.547 98.6309C152.538 98.5308 152.492 98.4377 152.416 98.3714C152.339 98.3071 152.239 98.2758 152.139 98.2843C152.038 98.2927 151.945 98.3402 151.879 98.4165L149.386 101.943C149.323 102.022 149.293 102.121 149.301 102.221C149.309 102.322 149.356 102.414 149.431 102.481C149.509 102.545 149.609 102.577 149.71 102.568C149.811 102.559 149.904 102.512 149.97 102.435Z" fill="#AEAEAF"/>
<path d="M161.834 104.239C163.698 102.226 165.224 99.9251 166.352 97.4265C166.554 96.9797 165.865 96.6487 165.662 97.0984C164.561 99.537 163.072 101.783 161.253 103.749C160.916 104.105 161.505 104.61 161.834 104.239Z" fill="#AEAEAF"/>
<path d="M159.823 99.5623C160.765 98.2784 161.706 96.9951 162.645 95.7122C162.933 95.3204 162.354 94.8243 162.062 95.2226L159.242 99.0719C158.953 99.4666 159.533 99.9619 159.824 99.5644L159.823 99.5623Z" fill="#AEAEAF"/>
<path d="M166.657 91.8396L167.144 89.2488C167.161 89.1495 167.14 89.0475 167.083 88.9642C167.026 88.8809 166.939 88.8229 166.841 88.8026C166.741 88.7859 166.639 88.8081 166.556 88.8646C166.472 88.9212 166.414 89.0077 166.393 89.1061L165.909 91.6983C165.891 91.7973 165.913 91.8993 165.969 91.9823C166.026 92.0654 166.113 92.1229 166.212 92.1424C166.311 92.1597 166.413 92.1378 166.496 92.0812C166.579 92.0247 166.637 91.938 166.657 91.8396Z" fill="#AEAEAF"/>
<path d="M164.187 89.3098C164.325 88.8735 164.486 88.4126 164.66 87.9543C164.834 87.496 165.048 87.0305 165.247 86.5824C165.289 86.4911 165.294 86.3871 165.26 86.2924C165.227 86.1978 165.158 86.12 165.067 86.0757C164.975 86.0337 164.871 86.0291 164.776 86.0628C164.68 86.0966 164.602 86.166 164.557 86.2564C164.123 87.201 163.75 88.1725 163.442 89.1649C163.424 89.2641 163.445 89.3665 163.502 89.45C163.559 89.5334 163.646 89.5912 163.745 89.6111C163.845 89.6269 163.946 89.6041 164.03 89.5472C164.113 89.4903 164.171 89.4038 164.192 89.3055L164.187 89.3098Z" fill="#AEAEAF"/>
<path d="M109.769 98.1264C110.001 95.3987 110.486 92.6979 111.217 90.0585C111.347 89.5848 110.598 89.4463 110.466 89.9158C109.739 92.5547 109.259 95.2548 109.032 97.9813C108.991 98.4711 109.733 98.6147 109.78 98.1227L109.769 98.1264Z" fill="#AEAEAF"/>
<path d="M108.299 91.8733C108.728 89.0342 109.744 86.3138 111.281 83.8847C111.325 83.7936 111.33 83.6892 111.297 83.5942C111.263 83.4992 111.193 83.4215 111.102 83.378C111.01 83.3367 110.906 83.3323 110.812 83.3658C110.717 83.3994 110.639 83.4683 110.594 83.558C109.023 86.0446 107.986 88.8281 107.549 91.7327C107.481 92.2152 108.226 92.3601 108.299 91.8733Z" fill="#AEAEAF"/>
<path d="M118.131 83.5028C119.211 80.9114 120.81 78.5666 122.83 76.6124C123.185 76.2704 122.597 75.7801 122.246 76.1207C120.182 78.1195 118.546 80.5157 117.439 83.1634C117.249 83.6156 117.935 83.9381 118.128 83.4922L118.131 83.5028Z" fill="#AEAEAF"/>
<path d="M126.759 76.383C127.935 74.8586 129.249 73.4454 130.684 72.1614C130.765 72.1015 130.819 72.0133 130.836 71.9148C130.854 71.8164 130.833 71.7151 130.778 71.6316C130.749 71.5906 130.713 71.5556 130.671 71.5286C130.628 71.5016 130.581 71.4832 130.532 71.4744C130.483 71.4657 130.432 71.4667 130.383 71.4774C130.334 71.4882 130.288 71.5085 130.246 71.5371C128.76 72.8613 127.399 74.319 126.18 75.8918C125.881 76.2782 126.464 76.7728 126.764 76.3815L126.759 76.383Z" fill="#AEAEAF"/>
<path d="M134.005 71.8552C134.97 70.34 136.265 69.0607 137.792 68.1124C138.21 67.8527 137.772 67.2285 137.357 67.4874C135.719 68.5151 134.335 69.8986 133.308 71.5343C133.264 71.6257 133.259 71.7306 133.293 71.8259C133.326 71.9212 133.397 71.9993 133.488 72.0431C133.579 72.0839 133.683 72.0879 133.778 72.0544C133.873 72.0209 133.951 71.9524 133.996 71.8631L134.005 71.8552Z" fill="#AEAEAF"/>
<path d="M127.4 68.4916C128.638 67.1159 130.041 65.897 131.577 64.8625C131.985 64.5874 131.549 63.9624 131.142 64.2375C129.551 65.3099 128.098 66.5736 126.816 67.9999C126.488 68.3655 127.072 68.8594 127.4 68.4916Z" fill="#AEAEAF"/>
<path d="M120.481 71.8368C120.589 71.6198 120.704 71.4078 120.828 71.2009C120.951 70.9958 121.046 70.848 121.195 70.6431C121.479 70.2514 121.794 69.8838 122.138 69.5442C122.204 69.4666 122.235 69.3666 122.227 69.2659C122.219 69.1652 122.171 69.072 122.093 69.0065C122.015 68.9439 121.915 68.9137 121.815 68.9223C121.715 68.9308 121.621 68.9774 121.554 69.0524C120.838 69.7681 120.246 70.5977 119.802 71.5071C119.759 71.5983 119.754 71.7025 119.787 71.7973C119.821 71.8921 119.891 71.9699 119.981 72.0138C120.073 72.0557 120.177 72.0604 120.272 72.0268C120.367 71.9932 120.445 71.9239 120.49 71.8338L120.481 71.8368Z" fill="#AEAEAF"/>
<path d="M113.311 79.4406L115.611 75.8395C115.654 75.7479 115.659 75.6433 115.625 75.5481C115.592 75.4529 115.522 75.3749 115.431 75.3306C115.339 75.2898 115.235 75.2858 115.14 75.3194C115.045 75.3531 114.966 75.4218 114.921 75.5113L112.621 79.1125C112.578 79.2041 112.573 79.3087 112.607 79.4038C112.64 79.499 112.71 79.5771 112.801 79.6213C112.893 79.6616 112.997 79.6653 113.092 79.6317C113.187 79.5981 113.265 79.5298 113.311 79.4406Z" fill="#AEAEAF"/>
<path d="M112.258 75.2945L115.063 71.2627C115.126 71.1844 115.156 71.0854 115.148 70.9859C115.139 70.8864 115.093 70.7938 115.019 70.7271C114.941 70.6623 114.841 70.6307 114.74 70.6393C114.639 70.6479 114.546 70.696 114.48 70.773L111.676 74.8021C111.613 74.8803 111.582 74.9799 111.59 75.0801C111.599 75.1803 111.646 75.2733 111.721 75.3397C111.799 75.404 111.898 75.4352 111.999 75.4268C112.099 75.4183 112.192 75.3708 112.258 75.2945Z" fill="#AEAEAF"/>
<path d="M124.153 107.553C124.649 106.197 125.305 104.905 126.108 103.704C126.171 103.625 126.201 103.526 126.193 103.426C126.184 103.326 126.138 103.233 126.063 103.166C125.985 103.102 125.885 103.07 125.784 103.079C125.683 103.088 125.59 103.137 125.524 103.214C124.68 104.464 123.988 105.81 123.465 107.224C123.424 107.316 123.419 107.42 123.453 107.515C123.487 107.609 123.555 107.688 123.645 107.733C123.736 107.776 123.841 107.781 123.936 107.747C124.031 107.713 124.109 107.644 124.153 107.553Z" fill="#AEAEAF"/>
<path d="M120.146 108.29C120.555 107.082 121.157 105.947 121.928 104.929C121.991 104.851 122.021 104.751 122.013 104.651C122.004 104.551 121.958 104.458 121.883 104.392C121.805 104.327 121.705 104.296 121.604 104.305C121.503 104.313 121.41 104.361 121.344 104.437C120.53 105.503 119.892 106.691 119.456 107.957C119.415 108.048 119.41 108.152 119.444 108.246C119.477 108.341 119.546 108.418 119.635 108.464C119.726 108.507 119.831 108.512 119.926 108.478C120.022 108.445 120.1 108.375 120.143 108.284L120.146 108.29Z" fill="#AEAEAF"/>
<path d="M116.539 108.255L117.842 105.673C117.884 105.581 117.89 105.477 117.856 105.382C117.822 105.288 117.753 105.21 117.662 105.166C117.571 105.124 117.466 105.119 117.372 105.153C117.277 105.187 117.198 105.256 117.154 105.346L115.851 107.926C115.808 108.018 115.803 108.123 115.837 108.218C115.87 108.313 115.94 108.391 116.031 108.435C116.123 108.477 116.227 108.481 116.322 108.447C116.416 108.414 116.494 108.345 116.539 108.255Z" fill="#AEAEAF"/>
<path d="M105.77 111.407C106.493 109.151 106.902 106.806 106.983 104.44C107.005 103.957 106.24 104.009 106.22 104.493C106.132 106.794 105.729 109.073 105.022 111.266C105.004 111.365 105.025 111.468 105.082 111.551C105.139 111.635 105.226 111.692 105.325 111.712C105.424 111.728 105.526 111.705 105.609 111.649C105.692 111.592 105.749 111.506 105.77 111.407Z" fill="#AEAEAF"/>
<path d="M174.088 85.5098L175.363 77.1441C175.431 76.6617 174.686 76.5167 174.612 77.0014C174.189 79.7902 173.763 82.5787 173.336 85.3671C173.269 85.8495 174.014 85.9945 174.088 85.5098Z" fill="#AEAEAF"/>
<path d="M173.119 81.5286L174.1 77.4656C174.216 76.9871 173.464 76.8473 173.348 77.3229L172.368 81.3859C172.251 81.8644 173.004 82.0042 173.119 81.5286Z" fill="#AEAEAF"/>
<path d="M176.429 67.7692L175.794 64.138C175.784 64.0383 175.737 63.9462 175.661 63.8808C175.585 63.8153 175.486 63.7814 175.386 63.7859C175.336 63.7896 175.287 63.803 175.242 63.8255C175.198 63.848 175.158 63.8791 175.125 63.9169C175.092 63.9548 175.067 63.9988 175.051 64.0463C175.035 64.0938 175.029 64.144 175.033 64.1939L175.667 67.8251C175.677 67.9248 175.725 68.0169 175.801 68.0823C175.877 68.1478 175.975 68.1817 176.076 68.1771C176.177 68.1692 176.27 68.1219 176.336 68.0455C176.403 67.9691 176.436 67.8699 176.429 67.7692Z" fill="#AEAEAF"/>
<path d="M158.568 40.1461C156.246 40.3633 154.022 41.1869 152.118 42.5341C151.719 42.8182 152.152 43.444 152.556 43.1583C154.345 41.8873 156.438 41.1103 158.623 40.9061C159.112 40.8611 159.053 40.1027 158.568 40.1461Z" fill="#AEAEAF"/>
<path d="M148.214 42.6455C146.843 43.384 145.472 44.1247 144.098 44.8676C144.015 44.9257 143.959 45.014 143.942 45.1133C143.924 45.2126 143.947 45.3147 144.004 45.3973C144.064 45.4783 144.152 45.5334 144.251 45.551C144.35 45.5686 144.452 45.5474 144.536 45.4918C145.906 44.7519 147.278 44.0112 148.652 43.2697C148.734 43.211 148.791 43.1223 148.808 43.0226C148.826 42.923 148.804 42.8205 148.747 42.7371C148.687 42.6562 148.598 42.6015 148.499 42.5844C148.399 42.5673 148.297 42.5892 148.214 42.6455Z" fill="#AEAEAF"/>
</g>
<defs>
<filter id="filter0_d_431_46" x="0.751465" y="0.749329" width="212.949" height="223.208" filterUnits="userSpaceOnUse" color-interpolation-filters="sRGB">
<feFlood flood-opacity="0" result="BackgroundImageFix"/>
<feColorMatrix in="SourceAlpha" type="matrix" values="0 0 0 0 0 0 0 0 0 0 0 0 0 0 0 0 0 0 127 0" result="hardAlpha"/>
<feOffset dy="4"/>
<feGaussianBlur stdDeviation="2"/>
<feComposite in2="hardAlpha" operator="out"/>
<feColorMatrix type="matrix" values="0 0 0 0 0 0 0 0 0 0 0 0 0 0 0 0 0 0 0.25 0"/>
<feBlend mode="normal" in2="BackgroundImageFix" result="effect1_dropShadow_431_46"/>
<feBlend mode="normal" in="SourceGraphic" in2="effect1_dropShadow_431_46" result="shape"/>
</filter>
</defs>
</svg>
